<svg xmlns="http://www.w3.org/2000/svg" xmlns:xlink="http://www.w3.org/1999/xlink" width="55.883" height="66.064" viewBox="0 0 55.883 66.064">
  <defs>
    <clipPath id="clip-path">
      <rect id="Rechteck_33" data-name="Rechteck 33" width="55.882" height="66.064" fill="#fff"/>
    </clipPath>
  </defs>
  <g id="Gruppe_37" data-name="Gruppe 37" transform="translate(-932.059 -968.468)">
    <g id="Gruppe_36" data-name="Gruppe 36" transform="translate(932.059 968.468)">
      <g id="Gruppe_16" data-name="Gruppe 16" clip-path="url(#clip-path)">
        <path id="Pfad_10" data-name="Pfad 10" d="M48.308,10.766a1.629,1.629,0,0,1,.6,2.2,1.6,1.6,0,0,1-.669.646L30.1,24.221a1.578,1.578,0,0,1-1.666.056l-8.663-4.972-5.612,3.282,7.878,4.522a1.628,1.628,0,0,1,.6,2.2,1.584,1.584,0,0,1-2.175.608l-19-10.906a1.628,1.628,0,0,1-.6-2.2A1.584,1.584,0,0,1,3.037,16.2l7.909,4.539,7.947-4.647a1.575,1.575,0,0,1,1.664-.055l8.663,4.972,15.087-8.822L37.376,8.209,28.843,13.2a1.574,1.574,0,0,1-1.58,0v0L19.809,8.928l-8.857,5.179a1.581,1.581,0,0,1-2.175-.595,1.626,1.626,0,0,1,.588-2.2l9.562-5.592a1.529,1.529,0,0,1,.159-.094L28.333.216a1.582,1.582,0,0,1,2.175.6,1.626,1.626,0,0,1-.588,2.2l-6.9,4.037,5.028,2.886L36.494,5a1.578,1.578,0,0,1,1.664-.055Z" transform="translate(-0.325 0)" fill="#fff" fill-rule="evenodd"/>
        <path id="Pfad_11" data-name="Pfad 11" d="M0,42.885a1.621,1.621,0,0,1,2.493-1.368L20.751,52.094a1.622,1.622,0,0,1,.91,1.458l.028,9.759,5.649,3.173V48.209a1.622,1.622,0,0,1,.934-1.469l5.947-3.368L53.45,32.056a1.615,1.615,0,1,1,1.634,2.787l-8.172,4.809,0,9.358a1.575,1.575,0,0,1-.018.28c-.005.032-.011.063-.017.1a1.579,1.579,0,0,1-.09.286l-.02.046a1.606,1.606,0,0,1-.6.69c-2.256,1.641-4.684,2.813-7.231,4.312l0,17.656,5.441-3.256,0-9.983a1.616,1.616,0,0,1,.8-1.394l7.478-4.4,0-10.362a1.615,1.615,0,1,1,3.23,0l-.005,22.193a1.615,1.615,0,0,1-3.23,0l0-8.082L47.6,60.059,47.6,70a1.615,1.615,0,0,1-.8,1.431c-2.953,1.737-5.958,4.025-8.9,5.267a1.614,1.614,0,0,1-.835.094c-.032-.005-.063-.011-.1-.018a1.617,1.617,0,0,1-.286-.09l-.046-.02a1.607,1.607,0,0,1-.69-.6,1.533,1.533,0,0,1-.143-.279,1.606,1.606,0,0,1-.112-.628l0-21.327a1.584,1.584,0,0,1,.025-.328l.019-.092a1.572,1.572,0,0,1,.074-.231,1.6,1.6,0,0,1,.623-.75c2.794-1.773,4.363-2.624,7.233-4.313l0-6.392-13.1,7.419V80.258a1.621,1.621,0,1,1-3.243,0V70.2l-7.984-4.484a1.622,1.622,0,0,1-.908-1.457L18.418,54.5,3.243,45.652v8.106l8.569,4.813a1.619,1.619,0,0,1,.828,1.413h0V68.64l8.9,5a1.619,1.619,0,0,1-1.583,2.825l-9.647-5.418a1.569,1.569,0,0,1-.158-.089L.829,65.72a1.619,1.619,0,0,1,1.584-2.825L9.4,66.819V60.93L.908,56.161A1.622,1.622,0,0,1,0,54.7Z" transform="translate(0 -15.816)" fill="#fff" fill-rule="evenodd"/>
      </g>
    </g>
  </g>
</svg>
