<svg xmlns="http://www.w3.org/2000/svg" width="157.006" height="19.38" viewBox="0 0 157.006 19.38"><g transform="translate(-41.78 -35.11)"><path d="M55.623,39.586V35.54H41.78V54.6H45.9V47.629h9.238V43.71H45.9V39.586Z" transform="translate(0 -0.303)" fill="#fff"/><path d="M109.41,35.11a9.69,9.69,0,1,0,9.69,9.69A9.7,9.7,0,0,0,109.41,35.11Zm0,15.615a5.923,5.923,0,1,1,5.925-5.925A5.929,5.929,0,0,1,109.41,50.725Z" transform="translate(-40.803)" fill="#fff"/><path d="M334.745,35.57h-4.28L321.92,54.607h4.422l1.674-3.727h9.2l1.674,3.727h4.422L334.763,35.57h-.024Zm-5.085,11.438,2.955-6.649,2.955,6.649Z" transform="translate(-197.277 -0.324)" fill="#fff"/><path d="M252.643,43.387l-5.528-7.847H242.84V54.583h4.126V42.325l5.661,8.069,5.664-8.09V54.583h4.126V35.54h-4.274Z" transform="translate(-141.588 -0.303)" fill="#fff"/><path d="M394.63,39.345h5.836V54.587h4.15V39.345h5.809V35.52h-15.8Z" transform="translate(-248.479 -0.289)" fill="#fff"/><path d="M181.765,41.845c0-3.106-2.162-6.451-6.91-6.451-1.038,0-10.885-.024-10.885-.024l2.633,3.893h8.256a2.516,2.516,0,0,1,2.733,2.633,2.437,2.437,0,0,1-2.76,2.532h-4.7l6.845,10.054h4.94l-4.534-6.676a5.779,5.779,0,0,0,4.381-5.96Z" transform="translate(-86.047 -0.183)" fill="#fff"/><path d="M529.074,46.87l7.386-11.35h-4.671L524.22,46.867v3.757h10.208v3.964h4.1V46.87Z" transform="translate(-339.738 -0.289)" fill="#fff"/><path d="M470.467,41.558c-.243,0-1.452,0-2.8-.006v-2.2h8.7V35.53H463.54v6.013h0v3.884h6.924A2.516,2.516,0,0,1,473.2,48.06h0a2.516,2.516,0,0,1-2.733,2.633H463.54v3.884s6.333-.015,6.924-.015c4.747,0,6.91-3.345,6.91-6.451v-.1c0-3.106-2.162-6.451-6.91-6.451Z" transform="translate(-297.007 -0.296)" fill="#fff"/></g></svg>