<?xml version="1.0" standalone="no"?>
<!DOCTYPE svg PUBLIC "-//W3C//DTD SVG 20010904//EN"
 "http://www.w3.org/TR/2001/REC-SVG-20010904/DTD/svg10.dtd">
<svg version="1.0" xmlns="http://www.w3.org/2000/svg"
 width="512.000000pt" height="512.000000pt" viewBox="0 0 512.000000 512.000000"
 preserveAspectRatio="xMidYMid meet">

<g transform="translate(0.000000,512.000000) scale(0.100000,-0.100000)"
fill="#000000" stroke="none">
<path d="M142 3829 c-49 -14 -118 -88 -132 -141 -26 -95 14 -196 98 -245 l47
-28 2405 0 2405 0 47 28 c84 49 124 149 97 244 -16 59 -78 124 -135 141 -52
15 -4779 16 -4832 1z"/>
<path d="M162 1700 c-84 -20 -162 -116 -162 -198 0 -92 65 -185 146 -210 60
-18 4768 -18 4828 0 57 17 119 82 135 141 27 95 -13 195 -97 244 l-47 28
-2385 2 c-1312 0 -2400 -2 -2418 -7z"/>
</g>
</svg>
