<svg xmlns="http://www.w3.org/2000/svg" xmlns:xlink="http://www.w3.org/1999/xlink" width="125.903" height="148.842" viewBox="0 0 125.903 148.842"><defs><linearGradient id="a" x1="0.5" x2="0.5" y2="1" gradientUnits="objectBoundingBox"><stop offset="0" stop-color="#00e39d"/><stop offset="1" stop-color="#00722c"/></linearGradient><clipPath id="b"><rect width="125.903" height="148.842" fill="url(#a)"/></clipPath></defs><g clip-path="url(#b)"><path d="M107.364,24.255a3.67,3.67,0,0,1,1.351,4.967,3.6,3.6,0,0,1-1.507,1.454L66.353,54.569A3.556,3.556,0,0,1,62.6,54.7l-19.517-11.2L30.438,50.887,48.187,61.075a3.667,3.667,0,0,1,1.351,4.965,3.57,3.57,0,0,1-4.9,1.369L1.821,42.837A3.669,3.669,0,0,1,.469,37.871,3.569,3.569,0,0,1,5.37,36.5L23.188,46.726l17.905-10.47a3.548,3.548,0,0,1,3.75-.124l19.517,11.2L98.352,27.457,82.736,18.493,63.51,29.736a3.545,3.545,0,0,1-3.56.01l0,0L43.156,20.113,23.2,31.781a3.563,3.563,0,0,1-4.9-1.34,3.663,3.663,0,0,1,1.324-4.966l21.543-12.6a3.446,3.446,0,0,1,.358-.211L62.36.484a3.564,3.564,0,0,1,4.9,1.341,3.664,3.664,0,0,1-1.324,4.966l-15.554,9.1,11.328,6.5L80.748,11.257a3.555,3.555,0,0,1,3.75-.125Z" transform="translate(0.741 0.001)" fill-rule="evenodd" fill="url(#a)"/><path d="M0,24.9a3.653,3.653,0,0,1,5.616-3.081l41.135,23.83A3.654,3.654,0,0,1,48.8,48.931l.062,21.986,12.727,7.149V36.9a3.654,3.654,0,0,1,2.105-3.31L77.1,26,120.422.5A3.639,3.639,0,1,1,124.1,6.78L105.692,17.615,105.687,38.7a3.549,3.549,0,0,1-.041.63c-.011.071-.024.143-.039.214a3.556,3.556,0,0,1-.2.645l-.045.1a3.62,3.62,0,0,1-1.349,1.555c-5.082,3.7-10.553,6.337-16.291,9.714L87.71,91.338,99.967,84l0-22.491a3.641,3.641,0,0,1,1.8-3.14l16.849-9.915.006-23.346a3.639,3.639,0,1,1,7.278,0l-.011,50a3.639,3.639,0,0,1-7.278,0l0-18.209L107.25,63.592l0,22.407a3.64,3.64,0,0,1-1.8,3.224c-6.653,3.914-13.423,9.069-20.043,11.867a3.636,3.636,0,0,1-1.882.212c-.071-.011-.143-.024-.214-.04a3.646,3.646,0,0,1-.645-.2l-.1-.045A3.619,3.619,0,0,1,81,99.665a3.455,3.455,0,0,1-.322-.628,3.618,3.618,0,0,1-.252-1.415l.01-48.049a3.57,3.57,0,0,1,.057-.738l.043-.207a3.541,3.541,0,0,1,.168-.521,3.61,3.61,0,0,1,1.4-1.69c6.294-3.995,9.83-5.912,16.3-9.717l0-14.4L68.9,39.013V109.1a3.653,3.653,0,1,1-7.306,0V86.434L43.6,76.331a3.654,3.654,0,0,1-2.046-3.282l-.063-21.986L7.307,31.134V49.4L26.613,60.24a3.648,3.648,0,0,1,1.865,3.183h0v19.5L48.524,94.181a3.648,3.648,0,0,1-3.567,6.365L23.222,88.339a3.536,3.536,0,0,1-.356-.2l-21-11.793a3.649,3.649,0,0,1,3.569-6.365l15.739,8.841V65.555L2.046,54.811A3.654,3.654,0,0,1,0,51.529Z" transform="translate(0 36.087)" fill-rule="evenodd" fill="url(#a)"/></g></svg>