<svg xmlns="http://www.w3.org/2000/svg" width="405" height="442" viewBox="0 0 405 442"><g transform="translate(-139.13 -7652.167)"><line x2="404" transform="translate(139.63 7652.667)" fill="none" stroke="#fff" stroke-width="1"/><line x2="404" transform="translate(139.63 7689.667)" fill="none" stroke="#fff" stroke-width="1"/><line x2="404" transform="translate(139.63 7725.667)" fill="none" stroke="#fff" stroke-width="1"/><line x2="404" transform="translate(139.63 7762.667)" fill="none" stroke="#fff" stroke-width="1"/><line x2="404" transform="translate(139.63 7799.667)" fill="none" stroke="#fff" stroke-width="1"/><line x2="404" transform="translate(139.63 7835.667)" fill="none" stroke="#fff" stroke-width="1"/><line x2="404" transform="translate(139.63 7872.667)" fill="none" stroke="#fff" stroke-width="1"/><line x2="404" transform="translate(139.63 7909.667)" fill="none" stroke="#fff" stroke-width="1"/><line x2="404" transform="translate(139.63 7947.667)" fill="none" stroke="#fff" stroke-width="1"/><line x2="404" transform="translate(139.63 7982.667)" fill="none" stroke="#fff" stroke-width="1"/><line x2="404" transform="translate(139.63 8020.667)" fill="none" stroke="#fff" stroke-width="1"/><line x2="404" transform="translate(139.63 8057.667)" fill="none" stroke="#fff" stroke-width="1"/><line x2="404" transform="translate(139.63 8093.667)" fill="none" stroke="#fff" stroke-width="1"/><line y2="441" transform="translate(139.63 7652.667)" fill="none" stroke="#fff" stroke-width="1"/><line y2="441" transform="translate(175.63 7652.667)" fill="none" stroke="#fff" stroke-width="1"/><line y2="441" transform="translate(212.63 7652.667)" fill="none" stroke="#fff" stroke-width="1"/><line y2="441" transform="translate(250.63 7652.667)" fill="none" stroke="#fff" stroke-width="1"/><line y2="441" transform="translate(285.63 7652.667)" fill="none" stroke="#fff" stroke-width="1"/><line y2="441" transform="translate(323.63 7652.667)" fill="none" stroke="#fff" stroke-width="1"/><line y2="441" transform="translate(360.63 7652.667)" fill="none" stroke="#fff" stroke-width="1"/><line y2="441" transform="translate(397.63 7652.667)" fill="none" stroke="#fff" stroke-width="1"/><line y2="441" transform="translate(433.63 7652.667)" fill="none" stroke="#fff" stroke-width="1"/><line y2="441" transform="translate(470.63 7652.667)" fill="none" stroke="#fff" stroke-width="1"/><line y2="441" transform="translate(507.63 7652.667)" fill="none" stroke="#fff" stroke-width="1"/><line y2="441" transform="translate(543.63 7652.667)" fill="none" stroke="#fff" stroke-width="1"/></g></svg>