<svg xmlns="http://www.w3.org/2000/svg" width="1641" height="857" viewBox="0 0 1641 857"><g transform="translate(-139.5 -7652.152)"><line x2="1640" transform="translate(140 7652.652)" fill="none" stroke="#fff" stroke-width="1"/><line x2="1640" transform="translate(140 7724.652)" fill="none" stroke="#fff" stroke-width="1"/><line x2="1640" transform="translate(140 7795.652)" fill="none" stroke="#fff" stroke-width="1"/><line x2="1640" transform="translate(140 7866.652)" fill="none" stroke="#fff" stroke-width="1"/><line x2="1640" transform="translate(140 7938.652)" fill="none" stroke="#fff" stroke-width="1"/><line x2="1640" transform="translate(140 8009.652)" fill="none" stroke="#fff" stroke-width="1"/><line x2="1640" transform="translate(140 8080.652)" fill="none" stroke="#fff" stroke-width="1"/><line x2="1640" transform="translate(140 8151.652)" fill="none" stroke="#fff" stroke-width="1"/><line x2="1640" transform="translate(140 8223.652)" fill="none" stroke="#fff" stroke-width="1"/><line x2="1640" transform="translate(140 8294.652)" fill="none" stroke="#fff" stroke-width="1"/><line x2="1640" transform="translate(140 8365.652)" fill="none" stroke="#fff" stroke-width="1"/><line x2="1640" transform="translate(140 8437.652)" fill="none" stroke="#fff" stroke-width="1"/><line x2="1640" transform="translate(140 8508.652)" fill="none" stroke="#fff" stroke-width="1"/><line y2="856" transform="translate(140 7652.652)" fill="none" stroke="#fff" stroke-width="1"/><line y2="856" transform="translate(211 7652.652)" fill="none" stroke="#fff" stroke-width="1"/><line y2="856" transform="translate(283 7652.652)" fill="none" stroke="#fff" stroke-width="1"/><line y2="856" transform="translate(354 7652.652)" fill="none" stroke="#fff" stroke-width="1"/><line y2="856" transform="translate(425 7652.652)" fill="none" stroke="#fff" stroke-width="1"/><line y2="856" transform="translate(497 7652.652)" fill="none" stroke="#fff" stroke-width="1"/><line y2="856" transform="translate(568 7652.652)" fill="none" stroke="#fff" stroke-width="1"/><line y2="856" transform="translate(639 7652.652)" fill="none" stroke="#fff" stroke-width="1"/><line y2="856" transform="translate(710 7652.652)" fill="none" stroke="#fff" stroke-width="1"/><line y2="856" transform="translate(782 7652.652)" fill="none" stroke="#fff" stroke-width="1"/><line y2="856" transform="translate(853 7652.652)" fill="none" stroke="#fff" stroke-width="1"/><line y2="856" transform="translate(924 7652.652)" fill="none" stroke="#fff" stroke-width="1"/><line y2="856" transform="translate(996 7652.652)" fill="none" stroke="#fff" stroke-width="1"/><line y2="856" transform="translate(1067 7652.652)" fill="none" stroke="#fff" stroke-width="1"/><line y2="856" transform="translate(1138 7652.652)" fill="none" stroke="#fff" stroke-width="1"/><line y2="856" transform="translate(1210 7652.652)" fill="none" stroke="#fff" stroke-width="1"/><line y2="856" transform="translate(1281 7652.652)" fill="none" stroke="#fff" stroke-width="1"/><line y2="856" transform="translate(1352 7652.652)" fill="none" stroke="#fff" stroke-width="1"/><line y2="856" transform="translate(1423 7652.652)" fill="none" stroke="#fff" stroke-width="1"/><line y2="856" transform="translate(1495 7652.652)" fill="none" stroke="#fff" stroke-width="1"/><line y2="856" transform="translate(1566 7652.652)" fill="none" stroke="#fff" stroke-width="1"/><line y2="856" transform="translate(1637 7652.652)" fill="none" stroke="#fff" stroke-width="1"/><line y2="856" transform="translate(1709 7652.652)" fill="none" stroke="#fff" stroke-width="1"/><line y2="856" transform="translate(1780 7652.652)" fill="none" stroke="#fff" stroke-width="1"/></g></svg>