<svg xmlns="http://www.w3.org/2000/svg" xmlns:xlink="http://www.w3.org/1999/xlink" width="193.6" height="208.417" viewBox="0 0 193.6 208.417"><defs><clipPath id="a"><rect width="193.6" height="208.417" fill="#fff"/></clipPath></defs><g clip-path="url(#a)"><path d="M109.335,40.63a2.834,2.834,0,0,1,1.043,3.838,2.777,2.777,0,0,1-1.164,1.123L77.661,64.042a2.745,2.745,0,0,1-2.9.1L59.687,55.487,49.924,61.2l13.707,7.868A2.833,2.833,0,0,1,64.674,72.9a2.758,2.758,0,0,1-3.746,1.079l-.039-.022L27.822,54.982a2.834,2.834,0,0,1-1.043-3.839,2.757,2.757,0,0,1,3.746-1.08l.039.022,13.761,7.9L58.153,49.9a2.739,2.739,0,0,1,2.9-.1l15.073,8.652L102.375,43.1,90.314,36.178,75.465,44.863a2.736,2.736,0,0,1-2.748.007L59.745,37.431,44.334,46.442a2.753,2.753,0,0,1-3.763-1l-.022-.04a2.83,2.83,0,0,1,1.023-3.838l16.635-9.729a2.555,2.555,0,0,1,.28-.157l16.09-9.409a2.754,2.754,0,0,1,3.764,1l.021.038a2.831,2.831,0,0,1-1.022,3.839L65.326,34.166l8.749,5.021,14.7-8.6a2.748,2.748,0,0,1,2.9-.1Z" transform="translate(22.338 24.834)" fill="#fff" fill-rule="evenodd"/><path d="M25.765,72.8A2.821,2.821,0,0,1,30.1,70.425l31.77,18.4a2.82,2.82,0,0,1,1.58,2.536l.048,16.981,9.829,5.522v-31.8a2.823,2.823,0,0,1,1.626-2.559l10.351-5.858,33.462-19.691a2.811,2.811,0,1,1,2.843,4.849l-14.218,8.368,0,16.283a2.824,2.824,0,0,1-.032.487c-.009.055-.018.111-.03.165a2.8,2.8,0,0,1-.157.5l-.036.08a2.79,2.79,0,0,1-1.042,1.2c-3.926,2.85-8.149,4.89-12.583,7.5L93.5,124.117l9.466-5.667V101.08a2.813,2.813,0,0,1,1.389-2.426L117.377,91l0-18.029a2.81,2.81,0,1,1,5.62-.092q0,.046,0,.092l-.009,38.614a2.811,2.811,0,1,1-5.621.091V97.519l-8.776,5.169v17.3a2.811,2.811,0,0,1-1.388,2.491c-5.139,3.023-10.367,7-15.48,9.164a2.81,2.81,0,0,1-1.454.164c-.055-.009-.11-.018-.165-.031a2.816,2.816,0,0,1-.5-.156l-.08-.035a2.8,2.8,0,0,1-1.2-1.042,2.68,2.68,0,0,1-.248-.485,2.78,2.78,0,0,1-.194-1.089l.008-37.11a2.74,2.74,0,0,1,.043-.569l.033-.161a2.676,2.676,0,0,1,.129-.4,2.788,2.788,0,0,1,1.085-1.306c4.861-3.086,7.592-4.566,12.586-7.5V70.8L78.975,83.7v54.13a2.823,2.823,0,1,1-5.646,0V120.329l-13.888-7.8a2.822,2.822,0,0,1-1.581-2.535l-.048-16.981L31.411,77.62v14.1L46.319,100.1a2.817,2.817,0,0,1,1.439,2.459v15.062l15.48,8.693a2.818,2.818,0,1,1-2.752,4.918L43.7,121.8a2.891,2.891,0,0,1-.274-.155l-16.217-9.108a2.818,2.818,0,0,1,2.755-4.916l12.156,6.828V104.2l-14.774-8.3a2.824,2.824,0,0,1-1.581-2.537Z" transform="translate(22.416 21.026)" fill="#fff" fill-rule="evenodd"/><rect width="3.68" height="3.772" transform="matrix(0.701, -0.713, 0.713, 0.701, 162.618, 171.075)" fill="#fff"/><path d="M128.6,162.588l-2.084-2.761,7.4-5.589-.588-.778-7.037,5.314-2.007-2.661,7.037-5.313-2.1-2.784,3.548-2.68,6.782,8.98Z" transform="translate(24.195 28.292)" fill="#fff"/><path d="M121.243,154.194a5.984,5.984,0,0,1,3.487.351,5.7,5.7,0,0,1,3.02,5.727,5.969,5.969,0,0,1-1.68,3.075,17.137,17.137,0,0,1-8.212,4.332,5.974,5.974,0,0,1-3.487-.35,5.7,5.7,0,0,1-3.02-5.727,5.97,5.97,0,0,1,1.679-3.076,17.163,17.163,0,0,1,8.213-4.332m-5.217,6.634a2.148,2.148,0,0,0,1.624,3.08,7.581,7.581,0,0,0,5.425-2.861,2.147,2.147,0,0,0-1.624-3.08,7.587,7.587,0,0,0-5.425,2.861" transform="translate(21.662 29.995)" fill="#fff"/><path d="M98.9,168.067a3.005,3.005,0,0,1-1.082-1.589l-.859-2.678,4.235-1.357.815,2.545a1.074,1.074,0,0,0,.579.73,1.454,1.454,0,0,0,1-.03l5.025-1.609-1.165-3.638,4.236-1.354,3.432,10.715-10.063,3.223a10.286,10.286,0,0,1-2.445.507,3.152,3.152,0,0,1-1.848-.4,2.723,2.723,0,0,1-1.144-1.6,2.544,2.544,0,0,1-.022-1.751,2.486,2.486,0,0,1,1.01-1.2,2.775,2.775,0,0,1-1.7-.516m4.9.853a.542.542,0,0,0,.268.839,1.687,1.687,0,0,0,.707-.112l5.1-1.631-.337-1.049-5.1,1.633a1.674,1.674,0,0,0-.64.32" transform="translate(18.875 30.968)" fill="#fff"/><path d="M87.74,176.051l-4.639.591L81.68,165.48l4.38-.557.741,5.806,3.768-6.571,5.313,5.423-.741-5.816,4.214-.536,1.422,11.161-4.623.591-4.921-5.022Z" transform="translate(15.9 31.774)" fill="#fff"/><path d="M70.989,164.425l.947,1.971,6.623.458,1.21-1.823,4.8.332-7.459,10.765-5.231-.362-5.911-11.687Zm5.651,5.321-3.2-.222,1.406,2.91Z" transform="translate(12.842 31.94)" fill="#fff"/><path d="M69.633,172.312l-.759,3.374-15.23-3.426.759-3.374,5.446,1.225,1.711-7.6,4.339.976-1.712,7.605Z" transform="translate(10.443 31.634)" fill="#fff"/><path d="M40.636,161.309a2.855,2.855,0,0,1-.426-3.161,2.9,2.9,0,0,1,1.725-1.584,5.579,5.579,0,0,1,2.85-.094,15.788,15.788,0,0,1,3.736,1.278,12.162,12.162,0,0,1,4.2,2.958,3.2,3.2,0,0,1,.6,3.551l-3.793-1.774a.939.939,0,0,0-.378-.917,6.952,6.952,0,0,0-1.772-1.076,11.964,11.964,0,0,0-1.7-.671,2.209,2.209,0,0,0-1-.113.623.623,0,0,0-.468.348c-.128.277-.022.589.319.939a7.412,7.412,0,0,0,2.019,1.23,17.432,17.432,0,0,0,1.631.675,6.11,6.11,0,0,0,1.054.284l3.708,1.733-3.86,5.725-11.544-5.4,1.4-3,8.459,3.953.6-.925a13.231,13.231,0,0,1-3.358-1.109,10.8,10.8,0,0,1-4.008-2.849" transform="translate(7.307 30.432)" fill="#fff"/><path d="M28.263,151.277l1.835-2.649,2.193,1.521.851-1.227,3.5,2.428-.852,1.227,7.184,4.981L41.141,160.2l-10.076.97-4.335-3.006,3.725-5.372ZM37,157.33l-3.037-2.105L32.176,157.8Z" transform="translate(5.203 28.932)" fill="#fff"/><rect width="3.772" height="3.68" transform="matrix(0.699, -0.715, 0.715, 0.699, 25.569, 174.222)" fill="#fff"/><rect width="3.68" height="3.772" transform="translate(25.766 37.262) rotate(-45.395)" fill="#fff"/><path d="M35.967,14.662l2.082,2.76-7.4,5.587.585.778,7.039-5.31,2.007,2.661-7.038,5.309,2.1,2.786L31.789,31.91l-6.777-8.983Z" transform="translate(4.869 2.854)" fill="#fff"/><path d="M43.532,22.481a5.993,5.993,0,0,1-3.487-.352,5.107,5.107,0,0,1-2.4-2.394,5.11,5.11,0,0,1-.618-3.334,5.985,5.985,0,0,1,1.681-3.075,14.715,14.715,0,0,1,3.809-2.731,14.746,14.746,0,0,1,4.4-1.6,5.979,5.979,0,0,1,3.488.351,5.11,5.11,0,0,1,2.4,2.394,5.112,5.112,0,0,1,.619,3.334,5.991,5.991,0,0,1-1.682,3.076,14.742,14.742,0,0,1-3.809,2.73,14.674,14.674,0,0,1-4.4,1.6m5.218-6.633a2.147,2.147,0,0,0-1.622-3.08,5.41,5.41,0,0,0-3.017.855,5.405,5.405,0,0,0-2.41,2,2.149,2.149,0,0,0,1.622,3.081,5.4,5.4,0,0,0,3.015-.857,5.4,5.4,0,0,0,2.411-2" transform="translate(7.194 1.731)" fill="#fff"/><path d="M66.135,8.738a3,3,0,0,1,1.084,1.589l.858,2.68L63.84,14.36l-.812-2.543a1.075,1.075,0,0,0-.581-.731,1.468,1.468,0,0,0-1,.03l-5.025,1.607L57.59,16.36l-4.235,1.355L49.926,7,59.989,3.777a10.1,10.1,0,0,1,2.447-.5,3.137,3.137,0,0,1,1.846.4,2.715,2.715,0,0,1,1.144,1.6,2.54,2.54,0,0,1,.022,1.75,2.5,2.5,0,0,1-1.011,1.2,2.767,2.767,0,0,1,1.7.516m-4.893-.855a.442.442,0,0,0,.081-.49.441.441,0,0,0-.35-.349,1.732,1.732,0,0,0-.708.111l-5.1,1.631L55.5,9.833,60.6,8.2a1.732,1.732,0,0,0,.643-.321" transform="translate(9.719 0.636)" fill="#fff"/><path d="M77.458.589,82.1,0l1.417,11.163-4.38.556L78.4,5.912l-3.773,6.569-5.31-5.424.739,5.814-4.215.535L64.421,2.245l4.626-.588,4.92,5.025Z" transform="translate(12.54 0)" fill="#fff"/><path d="M94.126,12l-.946-1.971-6.624-.461-1.21,1.822-4.8-.332L88.005.3l5.23.361,5.908,11.691ZM88.477,6.677l3.2.222-1.4-2.91Z" transform="translate(15.678 0.058)" fill="#fff"/><path d="M95.088,4.3,95.85.93l15.226,3.439-.761,3.373L104.87,6.513l-1.717,7.6-4.337-.978,1.717-7.6Z" transform="translate(18.51 0.181)" fill="#fff"/><path d="M124.064,15.5a2.856,2.856,0,0,1,.424,3.161,2.892,2.892,0,0,1-1.725,1.582,5.57,5.57,0,0,1-2.852.094,15.927,15.927,0,0,1-3.735-1.278,12.176,12.176,0,0,1-4.2-2.962,3.2,3.2,0,0,1-.595-3.548l3.792,1.773a.939.939,0,0,0,.379.919,6.823,6.823,0,0,0,1.768,1.074,11.659,11.659,0,0,0,1.7.674,2.213,2.213,0,0,0,1,.115.617.617,0,0,0,.468-.349c.128-.275.023-.587-.319-.938a7.373,7.373,0,0,0-2.019-1.231,17.068,17.068,0,0,0-1.63-.677,6.333,6.333,0,0,0-1.053-.283l-3.709-1.735,3.864-5.724,11.542,5.4-1.4,3L117.3,10.611l-.6.923a13.279,13.279,0,0,1,3.357,1.11,10.8,10.8,0,0,1,4.008,2.853" transform="translate(21.625 1.2)" fill="#fff"/><path d="M136.463,25.248,134.627,27.9l-2.192-1.522-.852,1.227-3.5-2.43.851-1.227-7.181-4.983,1.837-2.646,10.076-.968L138,18.356l-3.727,5.372Zm-8.731-6.057,3.036,2.106,1.784-2.57Z" transform="translate(23.7 2.988)" fill="#fff"/><rect width="3.772" height="3.681" transform="translate(162.789 34.349) rotate(-45.631)" fill="#fff"/><path d="M140.674,160.751c.49.124.981.247,1.468.374A96.538,96.538,0,0,0,143.6,35.251c-.484.13-.969.26-1.456.387a95.188,95.188,0,0,1-1.469,125.113" transform="translate(27.384 6.862)" fill="#fff"/><path d="M25.64,160.886A95.193,95.193,0,0,1,24.17,35.542c-.486-.128-.966-.262-1.45-.392a96.537,96.537,0,0,0,1.453,126.11c.486-.128.978-.248,1.467-.374" transform="translate(0 6.842)" fill="#fff"/></g></svg>